# xmcd
#
# Track frame offsets:
#	150
#	13102
#	27762
#	42405
#	60042
#	76067
#	89097
#	102055
#	114662
#	125230
#	135142
#	146115
#	158137
#	168635
#	177667
#	189542
#	199687
#	212945
#	230357
#	246640
#
# Disc length: 3653 seconds
#
# Revision: 0
# Processed by: cddbd v1.5.1PL0 Copyright (c) Steve Scherf et al.
# Submitted via: audiograbber 1.83.01
#
DISCID=1c0e4314
DTITLE=Country - The Country Collection Disk #4
DYEAR=1900
DGENRE=Country
TTITLE0=Patsy Cline - Life's Railway To Heaven
TTITLE1=Kenny Rogers - Hear The Call
TTITLE2=Connie Smith - Jesus Is Your Ticket To Heaven
TTITLE3=Carter Family - Will The Circle Bde Unbroken
TTITLE4=Connie Smith - I'd Rather Believe In You
TTITLE5=Michael Jones - Faith
TTITLE6=Michael Jones - Glory Glory
TTITLE7=Jim Reeves - When God Dips His Love
TTITLE8=Jim Reeves - Piece In The Valley
TTITLE9=Jim Reeves - Softly and Tenderly
TTITLE10=George Jones - The Tender Years
TTITLE11=Johnny Cash - You're The Nearest Thing To Heaven
TTITLE12=Freddie Fender - A Man Can Cry
TTITLE13=Willie Nelson - The Waiting Time
TTITLE14=Patsy Cline - Sstay Asleep
TTITLE15=Jimmy Rogers - Kisses Sweeter Than Wine
TTITLE16=Johnny Russell - Crystal Chandeliers
TTITLE17=Anne Murray - Nobody Loves Me Like You Do
TTITLE18=Lynn Anderson - When I Dream
TTITLE19=Jimmy Dean - I-O-U
EXTD=
EXTT0=
EXTT1=
EXTT2=
EXTT3=
EXTT4=
EXTT5=
EXTT6=
EXTT7=
EXTT8=
EXTT9=
EXTT10=
EXTT11=
EXTT12=
EXTT13=
EXTT14=
EXTT15=
EXTT16=
EXTT17=
EXTT18=
EXTT19=
PLAYORDER=
